# xmcd
#
# Track frame offsets:
#	150
#	21027
#	42905
#	64002
#	85875
#	111175
#
# Disc length: 2277 seconds
#
# Revision: 1
# Processed by: cddbd v1.5.1PL0 Copyright (c) Steve Scherf et al.
# Submitted via: CDex 1.50Beta5
#
DISCID=4408e306
DTITLE=Akiko - “BACK HOME”REMIX
DYEAR=1996
DGENRE=Rock
TTITLE0=BACK HOME
TTITLE1=BACK HOME
TTITLE2=BACK HOME
TTITLE3=BACK HOME
TTITLE4=BACK HOME
TTITLE5=BACK HOME
EXTD=
EXTT0=
EXTT1=
EXTT2=
EXTT3=
EXTT4=
EXTT5=
PLAYORDER=
